<?xml version="1.0" encoding="UTF-8" standalone="no"?>
<svg
   xmlns:osb="http://www.openswatchbook.org/uri/2009/osb"
   xmlns:dc="http://purl.org/dc/elements/1.1/"
   xmlns:cc="http://creativecommons.org/ns#"
   xmlns:rdf="http://www.w3.org/1999/02/22-rdf-syntax-ns#"
   xmlns:svg="http://www.w3.org/2000/svg"
   xmlns="http://www.w3.org/2000/svg"
   xmlns:sodipodi="http://sodipodi.sourceforge.net/DTD/sodipodi-0.dtd"
   xmlns:inkscape="http://www.inkscape.org/namespaces/inkscape"
   inkscape:version="1.0 (4035a4fb49, 2020-05-01)"
   sodipodi:docname="Random_shit.svg"
   id="svg70"
   version="1.1"
   fill="none"
   viewBox="0 0 833.97498 340.15039"
   height="340.15039"
   width="833.97498">
  <metadata
     id="metadata76">
    <rdf:RDF>
      <cc:Work
         rdf:about="">
        <dc:format>image/svg+xml</dc:format>
        <dc:type
           rdf:resource="http://purl.org/dc/dcmitype/StillImage" />
        <dc:title />
      </cc:Work>
    </rdf:RDF>
  </metadata>
  <defs
     id="defs74">
    <linearGradient
       id="linearGradient867"
       osb:paint="gradient">
      <stop
         style="stop-color:#000000;stop-opacity:1;"
         offset="0"
         id="stop863" />
      <stop
         style="stop-color:#000000;stop-opacity:0;"
         offset="1"
         id="stop865" />
    </linearGradient>
    <linearGradient
       id="linearGradient857"
       osb:paint="gradient">
      <stop
         style="stop-color:#000000;stop-opacity:1;"
         offset="0"
         id="stop853" />
      <stop
         style="stop-color:#000000;stop-opacity:0;"
         offset="1"
         id="stop855" />
    </linearGradient>
    <linearGradient
       id="linearGradient849"
       osb:paint="solid">
      <stop
         style="stop-color:#000000;stop-opacity:1;"
         offset="0"
         id="stop847" />
    </linearGradient>
  </defs>
  <sodipodi:namedview
     inkscape:current-layer="svg70"
     inkscape:window-maximized="1"
     inkscape:window-y="-8"
     inkscape:window-x="-8"
     inkscape:cy="195.35216"
     inkscape:cx="647.67507"
     inkscape:zoom="1.1709178"
     showgrid="false"
     id="namedview72"
     inkscape:window-height="837"
     inkscape:window-width="1440"
     inkscape:pageshadow="2"
     inkscape:pageopacity="0"
     guidetolerance="10"
     gridtolerance="10"
     objecttolerance="10"
     borderopacity="1"
     bordercolor="#666666"
     pagecolor="#ffffff"
     inkscape:document-rotation="0" />
  <path
     sodipodi:nodetypes="cccccsccc"
     id="path44"
     stroke-linejoin="round"
     stroke-linecap="round"
     stroke-width="1.23709"
     stroke="#ff8900"
     d="m 340.26697,87.324372 c 10.67444,4.70105 13.48354,16.419828 7.56961,25.129748 -2.04805,2.81452 -4.93237,4.90943 -8.24899,5.9848 -3.31093,1.07537 -6.8836,1.07537 -10.19453,0 -3.31662,-1.07537 -6.20095,-3.17096 -8.24899,-5.98614 -2.04795,-2.81452 -3.15168,-6.20472 -3.15168,-9.68436 0,-3.479648 1.10373,-6.869838 3.15168,-9.685028 2.04804,-2.81452 4.93237,-4.91011 8.24899,-5.98548 3.31093,-1.07536 7.56298,-0.8489 10.87391,0.22646"
     style="stroke:#ecc2ff;stroke-opacity:1" />
  <path
     id="path46"
     stroke-linejoin="round"
     stroke-linecap="round"
     stroke-width="1.31899"
     stroke="#ff8900"
     d="m 484.81145,243.2223 c 0.8703,0 1.5811,-0.64687 1.5811,-1.44563 0,-0.79877 -0.7108,-1.44565 -1.5811,-1.44565 -0.87022,0 -1.58102,0.64688 -1.58102,1.44565 0,0.79876 0.7108,1.44563 1.58102,1.44563 z" />
  <path
     id="path48"
     stroke-linejoin="round"
     stroke-linecap="round"
     stroke-width="1.31899"
     stroke="#ff8900"
     d="m 484.81145,233.10153 c 0.8703,0 1.5811,-0.64753 1.5811,-1.44563 0,-0.79877 -0.7108,-1.4463 -1.5811,-1.4463 -0.87022,0 -1.58102,0.64753 -1.58102,1.4463 0,0.7981 0.7108,1.44563 1.58102,1.44563 z" />
  <path
     id="path50"
     stroke-linejoin="round"
     stroke-linecap="round"
     stroke-width="1.31899"
     stroke="#ff8900"
     d="m 484.81145,253.34373 c 0.8703,0 1.5811,-0.64753 1.5811,-1.4463 0,-0.79811 -0.7108,-1.44563 -1.5811,-1.44563 -0.87022,0 -1.58102,0.64752 -1.58102,1.44563 0,0.79877 0.7108,1.4463 1.58102,1.4463 z" />
  <path
     id="path52"
     stroke-linejoin="round"
     stroke-linecap="round"
     stroke-width="1.31899"
     stroke="#01c2ff"
     d="m 385.8109,282.65312 c 0,-0.85899 -0.65634,-1.55497 -1.46679,-1.55497 -0.81045,0 -1.46678,0.69598 -1.46678,1.55497 0,0.85901 0.65633,1.55498 1.46678,1.55498 0.81045,0 1.46679,-0.69597 1.46679,-1.55498 z" />
  <path
     id="path54"
     stroke-linejoin="round"
     stroke-linecap="round"
     stroke-width="1.31899"
     stroke="#01c2ff"
     d="m 375.54207,282.65312 c 0,-0.85899 -0.65699,-1.55497 -1.46678,-1.55497 -0.81045,0 -1.46745,0.69598 -1.46745,1.55497 0,0.85901 0.657,1.55498 1.46745,1.55498 0.80979,0 1.46678,-0.69597 1.46678,-1.55498 z" />
  <path
     id="path56"
     stroke-linejoin="round"
     stroke-linecap="round"
     stroke-width="1.31899"
     stroke="#01c2ff"
     d="m 396.08038,282.65312 c 0,-0.85899 -0.657,-1.55497 -1.46744,-1.55497 -0.8098,0 -1.46679,0.69598 -1.46679,1.55497 0,0.85901 0.65699,1.55498 1.46679,1.55498 0.81044,0 1.46744,-0.69597 1.46744,-1.55498 z" />
  <path
     style="stroke-width:0.659498"
     id="path58"
     stroke="#01c2ff"
     d="m 6.2190276,147.36923 5.6964794,5.05515 0.179296,0.1591 0.208987,-0.11851 6.638398,-3.77777 -3.117775,6.90213 -0.09812,0.21672 0.179295,0.15975 5.69648,5.05514 -7.623363,-0.79025 -0.240011,-0.0249 -0.09811,0.21737 -3.117784,6.90213 -1.5937307,-7.3899 -0.050157,-0.23242 -0.2400113,-0.0249 -7.6233803,-0.79026 6.6384155,-3.77712 0.2089869,-0.11916 -0.050158,-0.23242 z" />
  <path
     id="path60"
     stroke-linejoin="round"
     stroke-linecap="round"
     stroke-width="1.31899"
     stroke="#ff8900"
     d="m 480.91724,74.361865 -10.46943,5.15074 2.02612,-11.10614 -8.4433,-7.72578 11.81798,-1.60932 5.06863,-10.13975"
     style="stroke:#ecc2ff;stroke-opacity:1" />
  <path
     id="path62"
     stroke-linejoin="round"
     stroke-linecap="round"
     stroke-width="1.31899"
     stroke="#01c2ff"
     d="m 26.257316,320.45038 c -0.65101,0.58663 -1.5332,0.91596 -2.45327,0.91596 h -5.2035 6.01528 z m 0,0 c 0.65036,-0.58664 1.01573,-1.38213 1.01573,-2.21233 v -4.69177 l -0.24911,5.85588 z m -30.2065903,-6.9041 v 4.69177 c 0,0.8302 0.36537,1.62569 1.01639,2.21233 0.65035,0.58663 1.53255,0.91596 2.45261002,0.91596 H 4.7238857 m 0,-28.15326 h -5.20415998 c -0.92006002,0 -1.80226002,0.32998 -2.45261002,0.91662 -0.65102,0.58663 -1.01639,1.38213 -1.01639,2.21167 v 4.69242 l 0.12621,-5.52917 1.86671,-1.9943 z m 22.5491603,7.82071 v -4.69242 c 0,-0.82954 -0.36537,-1.62504 -1.01573,-2.21167 -0.65101,-0.58664 -1.5332,-0.91662 -2.45327,-0.91662 h -5.2035 l 6.67959,0.29724 1.86669,1.9943 z" />
  <path
     id="path64"
     stroke-linejoin="round"
     stroke-linecap="round"
     stroke-width="1.31899"
     stroke="#ff8900"
     d="m 135.87383,262.79404 c 0,3.11126 -1.04428,6.14199 -2.98206,8.65876 -1.93777,2.51677 -4.67006,4.38995 -7.80557,5.35108 -3.13553,0.96114 -6.51285,0.96114 -9.64771,0 -3.13551,-0.96179 -5.8678,-2.83496 -7.80558,-5.35174 -1.93777,-2.51677 -2.98139,-5.54815 -2.98139,-8.65876 0,-3.11126 1.04362,-6.14199 2.98139,-8.65876 1.93778,-2.51677 4.67007,-4.38995 7.80558,-5.35175 3.13553,-0.96113 6.51285,-0.96113 9.64836,0" />
  <path
     style="stroke-width:0.659498"
     id="path66"
     stroke="#ff4797"
     d="m 155.35812,42.380185 c 0,9.011659 -8.14909,16.368173 -18.26838,16.368173 -10.11928,0 -18.26837,-7.356514 -18.26837,-16.368173 0,-9.011667 8.14909,-16.368182 18.26837,-16.368182 10.11929,0 18.26838,7.356515 18.26838,16.368182 z" />
  <path
     style="stroke-width:0.659498"
     id="path68"
     stroke="#ff8900"
     d="m 192.3153,338.23136 10.64349,-32.42319 29.67249,32.42319 z" />
  <path
     sodipodi:nodetypes="cccccc"
     d="m 480.91724,48.931615 5.06863,10.13975 11.81798,1.60932 -8.4433,7.72578 2.02612,11.10614 -10.46943,-5.15074"
     stroke="#ff8900"
     stroke-width="1.31899"
     stroke-linecap="round"
     stroke-linejoin="round"
     id="path60-4"
     style="stroke:#ecc2ff;stroke-opacity:1" />
  <path
     style="fill:#ffffff;stroke-width:0.854031"
     d=""
     id="path20" />
  <path
     style="fill:none;fill-opacity:1;stroke:none;stroke-width:0.854;stroke-miterlimit:4;stroke-dasharray:none;stroke-opacity:1"
     d="m 328.57937,116.83746 c -6.40792,-2.99755 -10.60486,-10.48979 -9.33308,-16.6611 0.87417,-4.241918 4.35948,-8.915598 8.05429,-10.800558 11.43643,-5.83443 23.73869,3.28096 21.99303,16.295778 -1.23785,9.22889 -12.21071,15.14374 -20.71424,11.16588 z"
     id="path22" />
  <path
     id="path32"
     d=""
     style="fill:#ff8900;fill-opacity:1;stroke-width:0.854031" />
  <path
     id="path34"
     d="m 349.24205,108.48233 c 0,-0.0161 0.0679,-0.22867 0.15083,-0.47239 0.42901,-1.26033 0.68511,-2.45958 0.81453,-3.81418 0.0836,-0.87525 0.0561,-2.54302 -0.0556,-3.36741 -0.25367,-1.872588 -0.73175,-3.431428 -1.55088,-5.056908 -1.67287,-3.31963 -4.48573,-5.98357 -8.10506,-7.67594 -0.96802,-0.45264 -2.7573,-0.85371 -4.59605,-1.03023 -0.64867,-0.0623 -2.6598,-0.0625 -3.26479,-3.3e-4 -1.37875,0.14161 -2.53799,0.40029 -3.65284,0.81511 -3.0019,1.11694 -5.61523,3.1138 -7.43592,5.6818 l -0.25307,0.35694 -0.0101,-0.9932 -0.0101,-0.99321 0.27427,-0.32463 c 0.38555,-0.45634 1.29002,-1.35745 1.79723,-1.79056 2.16615,-1.84968 4.7789,-3.1524 7.39516,-3.68723 2.87696,-0.58812 6.40573,-0.38864 9.42508,0.53279 0.71304,0.2176 2.26616,1.02633 3.36846,1.754 1.05119,0.69393 1.87874,1.35993 2.75971,2.22096 1.47636,1.44296 2.5036,2.84172 3.396,4.6242 1.02208,2.0415 1.5712,4.02781 1.74488,6.311698 0.0568,0.74729 0.0262,2.39151 -0.0575,3.08635 -0.13899,1.15397 -0.43012,2.50202 -0.74584,3.45351 l -0.12524,0.37743 -0.63162,0.0104 c -0.3474,0.006 -0.63163,-0.003 -0.63163,-0.0189 z"
     style="fill:#ff8900;fill-opacity:1;stroke-width:0.0377432" />
  <path
     id="path36"
     d="m 332.83851,119.75557 c -2.40393,-0.34619 -4.09634,-0.83689 -5.87147,-1.7024 -2.81598,-1.373 -5.30941,-3.6261 -6.96627,-6.29482 -2.67117,-4.30248 -3.29171,-9.5281 -1.70505,-14.358398 0.43217,-1.31565 1.48084,-3.38373 2.27696,-4.49039 l 0.62966,-0.87526 0.0309,0.92713 c 0.0297,0.89167 0.0169,0.95039 -0.33517,1.53522 -0.96034,1.59508 -1.61635,3.24845 -2.0123,5.07164 -0.32048,1.475708 -0.34495,4.768828 -0.0457,6.158468 0.70854,3.29082 2.17954,6.05076 4.40826,8.27087 2.24146,2.23282 4.96118,3.68048 8.25578,4.39443 1.28957,0.27946 4.68581,0.28149 5.97566,0.004 3.85187,-0.82992 7.09857,-2.78766 9.41386,-5.6765 0.67802,-0.84599 1.50156,-2.24019 2.01975,-3.41931 l 0.35046,-0.79747 h 0.57943 c 0.57819,0 0.57927,6.4e-4 0.50824,0.29357 -0.12904,0.53219 -1.21213,2.6843 -1.80103,3.57868 -2.38226,3.61795 -6.35383,6.23055 -10.84534,7.13435 -0.98742,0.19869 -4.10302,0.35657 -4.8666,0.24661 z"
     style="fill:#ff8900;fill-opacity:1;stroke-width:0.106754" />
</svg>
