<?xml version="1.0" encoding="UTF-8" standalone="no"?>
<svg
   xmlns:osb="http://www.openswatchbook.org/uri/2009/osb"
   xmlns:dc="http://purl.org/dc/elements/1.1/"
   xmlns:cc="http://creativecommons.org/ns#"
   xmlns:rdf="http://www.w3.org/1999/02/22-rdf-syntax-ns#"
   xmlns:svg="http://www.w3.org/2000/svg"
   xmlns="http://www.w3.org/2000/svg"
   xmlns:sodipodi="http://sodipodi.sourceforge.net/DTD/sodipodi-0.dtd"
   xmlns:inkscape="http://www.inkscape.org/namespaces/inkscape"
   inkscape:version="1.0 (4035a4fb49, 2020-05-01)"
   sodipodi:docname="Random_shit.svg"
   id="svg70"
   version="1.1"
   fill="none"
   viewBox="0 0 833.97498 340.15039"
   height="340.15039"
   width="833.97498">
  <metadata
     id="metadata76">
    <rdf:RDF>
      <cc:Work
         rdf:about="">
        <dc:format>image/svg+xml</dc:format>
        <dc:type
           rdf:resource="http://purl.org/dc/dcmitype/StillImage" />
        <dc:title></dc:title>
      </cc:Work>
    </rdf:RDF>
  </metadata>
  <defs
     id="defs74">
    <linearGradient
       id="linearGradient867"
       osb:paint="gradient">
      <stop
         style="stop-color:#000000;stop-opacity:1;"
         offset="0"
         id="stop863" />
      <stop
         style="stop-color:#000000;stop-opacity:0;"
         offset="1"
         id="stop865" />
    </linearGradient>
    <linearGradient
       id="linearGradient857"
       osb:paint="gradient">
      <stop
         style="stop-color:#000000;stop-opacity:1;"
         offset="0"
         id="stop853" />
      <stop
         style="stop-color:#000000;stop-opacity:0;"
         offset="1"
         id="stop855" />
    </linearGradient>
    <linearGradient
       id="linearGradient849"
       osb:paint="solid">
      <stop
         style="stop-color:#000000;stop-opacity:1;"
         offset="0"
         id="stop847" />
    </linearGradient>
  </defs>
  <sodipodi:namedview
     inkscape:current-layer="svg70"
     inkscape:window-maximized="1"
     inkscape:window-y="-8"
     inkscape:window-x="-8"
     inkscape:cy="338.61349"
     inkscape:cx="662.49107"
     inkscape:zoom="0.5854589"
     showgrid="false"
     id="namedview72"
     inkscape:window-height="837"
     inkscape:window-width="1440"
     inkscape:pageshadow="2"
     inkscape:pageopacity="0"
     guidetolerance="10"
     gridtolerance="10"
     objecttolerance="10"
     borderopacity="1"
     bordercolor="#666666"
     pagecolor="#ffffff"
     inkscape:document-rotation="0" />
  <path
     sodipodi:nodetypes="cccccsccc"
     id="path44"
     stroke-linejoin="round"
     stroke-linecap="round"
     stroke-width="0.852612"
     stroke="#ff8900"
     d="m 259.38663,49.085897 c 8.0663,2.955057 10.18903,10.321424 5.72009,15.796437 -1.54764,1.769194 -3.72722,3.086044 -6.23347,3.762016 -2.50195,0.675973 -5.20169,0.675973 -7.70364,0 -2.50625,-0.675972 -4.68584,-1.99325 -6.23347,-3.762858 -1.54756,-1.769194 -2.38161,-3.900257 -2.38161,-6.087542 0,-2.187289 0.83405,-4.318346 2.38161,-6.087961 1.54763,-1.769193 3.72722,-3.086471 6.23347,-3.762443 2.50195,-0.675966 5.71507,-0.533615 8.21702,0.142351"
     style="stroke:#ecc2ff;stroke-opacity:1" />
  <path
     id="path46"
     stroke-linejoin="round"
     stroke-linecap="round"
     stroke-width="0.909058"
     stroke="#ff8900"
     d="m 368.61373,147.08257 c 0.65766,0 1.19478,-0.40662 1.19478,-0.90872 0,-0.5021 -0.53712,-0.90872 -1.19478,-0.90872 -0.65759,0 -1.19472,0.40662 -1.19472,0.90872 0,0.5021 0.53713,0.90872 1.19472,0.90872 z" />
  <path
     id="path48"
     stroke-linejoin="round"
     stroke-linecap="round"
     stroke-width="0.909058"
     stroke="#ff8900"
     d="m 368.61373,140.7207 c 0.65766,0 1.19478,-0.40703 1.19478,-0.90871 0,-0.50211 -0.53712,-0.90914 -1.19478,-0.90914 -0.65759,0 -1.19472,0.40703 -1.19472,0.90914 0,0.50168 0.53713,0.90871 1.19472,0.90871 z" />
  <path
     id="path50"
     stroke-linejoin="round"
     stroke-linecap="round"
     stroke-width="0.909058"
     stroke="#ff8900"
     d="m 368.61373,153.44485 c 0.65766,0 1.19478,-0.40703 1.19478,-0.90914 0,-0.50168 -0.53712,-0.90871 -1.19478,-0.90871 -0.65759,0 -1.19472,0.40703 -1.19472,0.90871 0,0.50211 0.53713,0.90914 1.19472,0.90914 z" />
  <path
     id="path52"
     stroke-linejoin="round"
     stroke-linecap="round"
     stroke-width="0.909058"
     stroke="#01c2ff"
     d="m 293.80256,171.86859 c 0,-0.53996 -0.49598,-0.97745 -1.10841,-0.97745 -0.61242,0 -1.10839,0.43749 -1.10839,0.97745 0,0.53997 0.49597,0.97745 1.10839,0.97745 0.61243,0 1.10841,-0.43748 1.10841,-0.97745 z" />
  <path
     id="path54"
     stroke-linejoin="round"
     stroke-linecap="round"
     stroke-width="0.909058"
     stroke="#01c2ff"
     d="m 286.04277,171.86859 c 0,-0.53996 -0.49647,-0.97745 -1.1084,-0.97745 -0.61242,0 -1.1089,0.43749 -1.1089,0.97745 0,0.53997 0.49648,0.97745 1.1089,0.97745 0.61193,0 1.1084,-0.43748 1.1084,-0.97745 z" />
  <path
     id="path56"
     stroke-linejoin="round"
     stroke-linecap="round"
     stroke-width="0.909058"
     stroke="#01c2ff"
     d="m 301.56283,171.86859 c 0,-0.53996 -0.49647,-0.97745 -1.10889,-0.97745 -0.61193,0 -1.1084,0.43749 -1.1084,0.97745 0,0.53997 0.49647,0.97745 1.1084,0.97745 0.61242,0 1.10889,-0.43748 1.10889,-0.97745 z" />
  <path
     style="stroke-width:0.454531"
     id="path58"
     stroke="#01c2ff"
     d="m 6.9585435,86.829804 4.3046255,3.17764 0.135488,0.10001 0.157924,-0.0745 5.016401,-2.37469 -2.355992,4.33864 -0.07414,0.13623 0.135486,0.10042 4.304627,3.17764 -5.760704,-0.49675 -0.181367,-0.0156 -0.07414,0.13663 -2.355998,4.33865 -1.2043256,-4.64526 -0.037902,-0.14609 -0.1813679,-0.0157 -5.7607162,-0.49675 5.0164135,-2.37428 0.1579239,-0.0749 -0.037903,-0.1461 z" />
  <path
     id="path60"
     stroke-linejoin="round"
     stroke-linecap="round"
     stroke-width="0.909058"
     stroke="#ff8900"
     d="m 365.67102,40.937729 -7.91138,3.23773 1.53107,-6.981266 -6.3803,-4.856387 8.93043,-1.011611 3.83018,-6.373797"
     style="stroke:#ecc2ff;stroke-opacity:1" />
  <path
     id="path62"
     stroke-linejoin="round"
     stroke-linecap="round"
     stroke-width="0.909058"
     stroke="#01c2ff"
     d="m 22.100762,195.62776 c -0.491945,0.36876 -1.158584,0.57577 -1.853848,0.57577 h -3.932099 4.545532 z m 0,0 c 0.491454,-0.36875 0.767551,-0.8688 0.767551,-1.39066 v -2.94922 l -0.188243,3.68098 z m -22.82604094,-4.33988 v 2.94922 c 0,0.52186 0.276097,1.02191 0.7680496,1.39066 0.4914462,0.36876 1.15809324,0.57577 1.85334974,0.57577 h 3.9325978 m 0,-17.697 H 1.8961204 c -0.6952565,0 -1.36190354,0.20742 -1.85334974,0.57618 -0.4919526,0.36876 -0.7680496,0.8688 -0.7680496,1.39025 v 2.94963 l 0.095372,-3.47561 1.4106061,-1.25361 z m 17.0395948,4.91606 v -2.94963 c 0,-0.52145 -0.276097,-1.02149 -0.767551,-1.39025 -0.491945,-0.36876 -1.158584,-0.57618 -1.853848,-0.57618 h -3.932099 l 5.047527,0.18684 1.410591,1.25361 z" />
  <path
     id="path64"
     stroke-linejoin="round"
     stroke-linecap="round"
     stroke-width="0.909058"
     stroke="#ff8900"
     d="m 104.93404,159.38527 c 0,1.95572 -0.78912,3.86083 -2.25343,5.44285 -1.4643,1.58203 -3.528998,2.75951 -5.898391,3.36367 -2.369408,0.60417 -4.921528,0.60417 -7.29043,0 -2.369393,-0.60458 -4.434087,-1.78204 -5.898398,-3.36408 -1.464303,-1.58203 -2.25293,-3.48754 -2.25293,-5.44285 0,-1.95573 0.788627,-3.86083 2.25293,-5.44286 1.464311,-1.58203 3.529005,-2.7595 5.898398,-3.36408 2.369408,-0.60416 4.921528,-0.60416 7.290921,0" />
  <path
     style="stroke-width:0.454531"
     id="path66"
     stroke="#ff4797"
     d="m 119.65762,20.834201 c 0,5.664685 -6.15797,10.288953 -13.80476,10.288953 -7.646773,0 -13.804749,-4.624268 -13.804749,-10.288953 0,-5.66469 6.157976,-10.28896 13.804749,-10.28896 7.64679,0 13.80476,4.62427 13.80476,10.28896 z" />
  <path
     style="stroke-width:0.454531"
     id="path68"
     stroke="#ff8900"
     d="m 174.91383,203.38868 8.04291,-20.38106 22.42244,20.38106 z" />
  <path
     sodipodi:nodetypes="cccccc"
     d="m 365.67102,24.952398 3.83018,6.373797 8.93043,1.011611 -6.3803,4.856387 1.53106,6.981266 -7.91137,-3.23773"
     stroke="#ff8900"
     stroke-width="0.909058"
     stroke-linecap="round"
     stroke-linejoin="round"
     id="path60-4"
     style="stroke:#ecc2ff;stroke-opacity:1" />
  <path
     style="fill:#ffffff;stroke-width:0.854031"
     d=""
     id="path20" />
  <path
     style="fill:none;fill-opacity:1;stroke:none;stroke-width:0.588583;stroke-miterlimit:4;stroke-dasharray:none;stroke-opacity:1"
     d="m 250.55473,67.63768 c -4.84223,-1.884245 -8.01371,-6.59383 -7.05267,-10.473086 0.66058,-2.666449 3.2943,-5.604301 6.08634,-6.789178 8.6421,-3.667494 17.93848,2.062396 16.61934,10.243447 -0.93539,5.801235 -9.22719,9.519281 -15.65301,7.018817 z"
     id="path22" />
  <path
     id="path32"
     d=""
     style="fill:#ff8900;fill-opacity:1;stroke-width:0.854031" />
  <path
     id="path34"
     d="m 266.16878,62.385686 c 0,-0.01012 0.0513,-0.14374 0.11398,-0.296942 0.32419,-0.792237 0.51771,-1.54608 0.61551,-2.397575 0.0632,-0.550177 0.0424,-1.59853 -0.042,-2.116737 -0.19169,-1.1771 -0.55296,-2.156979 -1.17195,-3.178748 -1.26413,-2.086703 -3.38971,-3.761243 -6.1247,-4.825058 -0.7315,-0.284527 -2.0836,-0.536638 -3.47307,-0.647598 -0.49018,-0.03916 -2.00992,-0.03929 -2.46709,-2.07e-4 -1.04187,0.08902 -1.91787,0.25162 -2.76032,0.512374 -2.26843,0.702103 -4.24323,1.957319 -5.61906,3.571552 l -0.19124,0.22437 -0.008,-0.62432 -0.008,-0.624327 0.20726,-0.204061 c 0.29134,-0.286853 0.97482,-0.853286 1.3581,-1.125537 1.63688,-1.1627 3.61124,-1.981584 5.58826,-2.317775 2.17401,-0.369689 4.84058,-0.244297 7.12219,0.334909 0.53882,0.136782 1.71246,0.645146 2.54543,1.102556 0.79434,0.436201 1.41969,0.854845 2.08541,1.396085 1.11563,0.907037 1.89188,1.786291 2.56624,2.906749 0.77235,1.283277 1.1873,2.531862 1.31854,3.967503 0.0429,0.469743 0.0198,1.503291 -0.0435,1.940064 -0.10503,0.72538 -0.32503,1.572758 -0.5636,2.17086 l -0.0946,0.23725 -0.4773,0.0065 c -0.26251,0.0038 -0.4773,-0.0019 -0.4773,-0.01188 z"
     style="fill:#ff8900;fill-opacity:1;stroke-width:0.0260129" />
  <path
     id="path36"
     d="m 253.77321,69.47199 c -1.81656,-0.217613 -3.09545,-0.526065 -4.43686,-1.07012 -2.12793,-0.863061 -4.01213,-2.279349 -5.26416,-3.956893 -2.01851,-2.704518 -2.48743,-5.989318 -1.28844,-9.025619 0.32657,-0.827012 1.11901,-2.126997 1.72061,-2.822638 l 0.47582,-0.550184 0.0233,0.58279 c 0.0224,0.560499 0.0128,0.59741 -0.25328,0.965031 -0.7257,1.00266 -1.22142,2.04196 -1.52062,3.188009 -0.24218,0.927622 -0.26067,2.997662 -0.0345,3.871183 0.53542,2.068593 1.647,3.803478 3.33117,5.199028 1.69379,1.40354 3.74898,2.313532 6.23859,2.762317 0.97449,0.175667 3.5409,0.176944 4.5156,0.0025 2.91072,-0.521684 5.36413,-1.75231 7.11372,-3.568221 0.51235,-0.531785 1.13467,-1.408172 1.52625,-2.149361 l 0.26483,-0.501286 h 0.43785 c 0.43692,0 0.43774,4.02e-4 0.38406,0.184537 -0.0975,0.334532 -0.91596,1.687338 -1.36097,2.249541 -1.80019,2.274225 -4.80136,3.916493 -8.19544,4.484617 -0.74616,0.124896 -3.1005,0.224138 -3.67751,0.155018 z"
     style="fill:#ff8900;fill-opacity:1;stroke-width:0.0735756" />
  <g
     style="fill:none"
     id="g298"
     transform="matrix(0.53957518,0,0,0.52735847,311.1128,50.253333)">
    <path
       id="path253"
       stroke-linejoin="round"
       stroke-linecap="round"
       stroke-width="2"
       stroke="#ecc2ff"
       d="m 423,210.056 v 7.166 c 0,1.267 0.55,2.483 1.53,3.379 0.979,0.896 2.307,1.399 3.692,1.399 h 7.834 m 0,-43 h -7.834 c -1.385,0 -2.713,0.503 -3.692,1.399 -0.98,0.896 -1.53,2.112 -1.53,3.379 v 7.166 z M 470,190.944 v -7.166 c 0,-1.267 -0.55,-2.483 -1.53,-3.379 -0.979,-0.896 -2.307,-1.399 -3.692,-1.399 h -7.834 z M 456.944,222 h 7.834 c 1.385,0 2.713,-0.503 3.692,-1.399 0.98,-0.896 1.53,-2.112 1.53,-3.379 v -7.166 z" />
    <path
       id="path257"
       stroke-linejoin="round"
       stroke-linecap="round"
       stroke-width="2"
       stroke="#ecc2ff"
       d="m 876.5,258.708 c 1.312,0 2.375,-0.988 2.375,-2.208 0,-1.22 -1.063,-2.208 -2.375,-2.208 -1.312,0 -2.375,0.988 -2.375,2.208 0,1.22 1.063,2.208 2.375,2.208 z" />
    <path
       id="path259"
       stroke-linejoin="round"
       stroke-linecap="round"
       stroke-width="2"
       stroke="#ecc2ff"
       d="m 876.5,243.25 c 1.312,0 2.375,-0.989 2.375,-2.208 0,-1.22 -1.063,-2.209 -2.375,-2.209 -1.312,0 -2.375,0.989 -2.375,2.209 0,1.219 1.063,2.208 2.375,2.208 z" />
    <path
       id="path261"
       stroke-linejoin="round"
       stroke-linecap="round"
       stroke-width="2"
       stroke="#ecc2ff"
       d="m 876.5,274.167 c 1.312,0 2.375,-0.989 2.375,-2.209 0,-1.219 -1.063,-2.208 -2.375,-2.208 -1.312,0 -2.375,0.989 -2.375,2.208 0,1.22 1.063,2.209 2.375,2.209 z" />
    <path
       id="path263"
       stroke-linejoin="round"
       stroke-linecap="round"
       stroke-width="2"
       stroke="#ecc2ff"
       d="m 131,452.501 c 0,4.963 -1.939,9.798 -5.539,13.813 -3.6,4.014 -8.676,7.003 -14.5,8.536 -5.825,1.533 -12.0988,1.533 -17.9232,0 -5.8243,-1.534 -10.9,-4.522 -14.4996,-8.537 C 74.9387,462.298 73,457.462 73,452.5 c 0,-4.963 1.9388,-9.798 5.5385,-13.813 3.5996,-4.015 8.6754,-7.003 14.4997,-8.537 5.8244,-1.533 12.0988,-1.533 17.9228,0" />
    <path
       id="path267"
       stroke="#ecc2ff"
       d="M 842.687,50.5 858.709,0.978264 903.376,50.5 Z" />
    <path
       id="path269"
       stroke="#ecc2ff"
       d="m 516.397,476.401 8.576,7.721 0.27,0.243 0.314,-0.181 9.993,-5.77 -4.693,10.542 -0.148,0.331 0.27,0.244 8.575,7.721 -11.476,-1.207 -0.361,-0.038 -0.148,0.332 -4.693,10.542 -2.399,-11.287 -0.076,-0.355 -0.361,-0.038 -11.476,-1.207 9.993,-5.769 0.315,-0.182 -0.075,-0.355 z" />
    <path
       d="m -349.65765,422.9316 c 0,13.764 -12.2671,25 -27.5,25 -15.2329,0 -27.5,-11.236 -27.5,-25 0,-13.7641 12.2671,-25 27.5,-25 15.2329,0 27.5,11.2359 27.5,25 z"
       stroke="#ecc2ff"
       id="path265-2"
       style="fill:none;stroke-width:1" />
  </g>
  <path
     style="stroke:#ecc2ff;stroke-opacity:1"
     d="m 551.70397,72.988226 -7.91138,3.23773 1.53107,-6.981266 -6.3803,-4.856387 8.93043,-1.011611 3.83018,-6.373797"
     stroke="#ff8900"
     stroke-width="0.909058"
     stroke-linecap="round"
     stroke-linejoin="round"
     id="path60-8" />
  <path
     style="stroke:#ecc2ff;stroke-opacity:1"
     id="path60-4-8"
     stroke-linejoin="round"
     stroke-linecap="round"
     stroke-width="0.909058"
     stroke="#ff8900"
     d="m 551.70397,57.002895 3.83018,6.373797 8.93043,1.011611 -6.3803,4.856387 1.53106,6.981266 -7.91137,-3.23773"
     sodipodi:nodetypes="cccccc" />
  <path
     d="m 643.95224,225.48743 8.04291,-20.38106 22.42244,20.38106 z"
     stroke="#ff8900"
     id="path68-4"
     style="stroke-width:0.454531" />
  <path
     d="m 681.65693,29.037055 c 0,5.664685 -6.15797,10.288953 -13.80476,10.288953 -7.64677,0 -13.80474,-4.624268 -13.80474,-10.288953 0,-5.664691 6.15797,-10.288961 13.80474,-10.288961 7.64679,0 13.80476,4.62427 13.80476,10.288961 z"
     stroke="#ff4797"
     id="path66-8"
     style="stroke-width:0.454531" />
</svg>
